<svg width="512" height="512" viewBox="0 0 512 512" fill="none" xmlns="http://www.w3.org/2000/svg">
<path d="M0 0H512V512H0V0Z" fill="white"/>
<path d="M512 0V512H0V0H512ZM43.4717 468.528H468.528V43.4717H43.4717V468.528Z" fill="#231F20"/>
<path d="M345.848 85.3175C347.398 81.0984 353.365 81.0984 354.915 85.3175L370.377 127.398C370.866 128.728 371.914 129.777 373.245 130.266L415.325 145.727C419.544 147.278 419.544 153.245 415.325 154.795L373.245 170.257C371.914 170.745 370.866 171.794 370.377 173.125L354.915 215.205C353.365 219.424 347.398 219.424 345.848 215.205L330.386 173.125C329.897 171.794 328.849 170.745 327.518 170.257L285.438 154.795C281.219 153.245 281.219 147.278 285.438 145.727L327.518 130.266C328.849 129.777 329.897 128.728 330.386 127.398L345.848 85.3175Z" fill="#231F20"/>
<path d="M392.885 230.072C393.66 227.962 396.644 227.962 397.419 230.072L405.15 251.112C405.394 251.777 405.919 252.301 406.584 252.546L427.624 260.276C429.734 261.052 429.734 264.035 427.624 264.81L406.584 272.541C405.919 272.786 405.394 273.31 405.15 273.975L397.419 295.015C396.644 297.125 393.66 297.125 392.885 295.015L385.154 273.975C384.91 273.31 384.386 272.786 383.72 272.541L362.68 264.81C360.571 264.035 360.571 261.052 362.68 260.276L383.72 252.546C384.386 252.301 384.91 251.777 385.154 251.112L392.885 230.072Z" fill="#231F20"/>
<path d="M82.1133 359.321C82.1133 343.274 95.1224 330.264 111.17 330.264H318.717C334.765 330.264 347.774 343.273 347.774 359.321V429.887H82.1133V359.321Z" fill="#231F20"/>
<path d="M148.528 222.339C148.528 190.244 174.546 164.226 206.642 164.226H223.245C255.34 164.226 281.359 190.244 281.359 222.339V238.943C281.359 271.038 255.34 297.056 223.245 297.056H206.642C174.547 297.056 148.528 271.038 148.528 238.943V222.339Z" fill="#231F20"/>
</svg>
