<svg width="512" height="512" viewBox="0 0 512 512" fill="none" xmlns="http://www.w3.org/2000/svg">
<path d="M0 0H512V512H0V0Z" fill="white"/>
<path d="M512 0V512H0V0H512ZM43.4717 468.528H468.528V43.4717H43.4717V468.528Z" fill="#231F20"/>
<path d="M209.93 162.783C213.03 154.344 224.964 154.344 228.065 162.783L258.988 246.943C259.966 249.604 262.063 251.701 264.724 252.679L348.885 283.602C357.323 286.703 357.323 298.637 348.885 301.738L264.724 332.661C262.063 333.638 259.966 335.736 258.988 338.397L228.065 422.557C224.964 430.995 213.03 430.995 209.93 422.557L179.007 338.397C178.029 335.736 175.932 333.638 173.271 332.661L89.1099 301.738C80.6717 298.637 80.6717 286.703 89.1099 283.602L173.271 252.679C175.932 251.701 178.029 249.604 179.007 246.943L209.93 162.783Z" fill="#231F20"/>
<path d="M357.226 85.7083C358.776 81.4892 364.743 81.4892 366.294 85.7083L381.755 127.789C382.244 129.119 383.293 130.168 384.623 130.657L426.704 146.118C430.923 147.668 430.923 153.636 426.704 155.186L384.623 170.647C383.293 171.136 382.244 172.185 381.755 173.515L366.294 215.596C364.743 219.815 358.776 219.815 357.226 215.596L341.765 173.515C341.276 172.185 340.227 171.136 338.897 170.647L296.816 155.186C292.597 153.636 292.597 147.668 296.816 146.118L338.897 130.657C340.227 130.168 341.276 129.119 341.765 127.789L357.226 85.7083Z" fill="#231F20"/>
<path d="M370.452 337.437C371.227 335.328 374.21 335.328 374.985 337.437L382.716 358.477C382.961 359.143 383.485 359.667 384.15 359.911L405.19 367.642C407.3 368.417 407.3 371.401 405.19 372.176L384.15 379.907C383.485 380.151 382.961 380.676 382.716 381.341L374.985 402.381C374.21 404.491 371.227 404.491 370.452 402.381L362.721 381.341C362.476 380.676 361.952 380.151 361.287 379.907L340.247 372.176C338.137 371.401 338.137 368.417 340.247 367.642L361.287 359.911C361.952 359.667 362.476 359.143 362.721 358.477L370.452 337.437Z" fill="#231F20"/>
</svg>
