<svg width="960" height="346" viewBox="0 0 960 346" fill="none" xmlns="http://www.w3.org/2000/svg">
<path d="M291.599 50.3972V341.996H0V50.3972H291.599ZM24.7584 317.238H266.841V75.1556H24.7584V317.238Z" fill="#231F20"/>
<path d="M607.116 206.146C633.467 206.147 665.19 212.031 665.19 243.754V312.574C665.19 324.599 666.47 336.624 669.795 341.996H632.955C631.675 337.903 630.653 333.553 630.397 329.204C618.884 341.228 601.999 345.577 585.881 345.577C560.809 345.577 540.854 333.041 540.854 305.923C540.854 275.99 563.368 268.826 585.881 265.756C608.139 262.43 628.862 263.198 628.862 248.359C628.862 232.753 618.116 230.451 605.325 230.451C591.51 230.451 582.555 236.079 581.276 250.406H544.947C546.993 216.38 577.439 206.146 607.116 206.146ZM482.203 206.146C510.345 206.146 530.556 219.194 530.556 253.477V341.996H494.227V267.035C494.227 249.383 492.692 234.8 471.969 234.8C451.503 234.8 447.665 251.685 447.665 268.314V341.996H411.336V267.803C411.336 252.453 412.359 234.8 389.334 234.8C382.171 234.8 364.774 239.405 364.774 265.244V341.996H328.445V209.728H362.727V227.637H363.239C372.705 214.077 386.52 206.147 403.661 206.146C420.29 206.146 435.129 212.287 442.292 228.148C449.968 216.636 463.783 206.147 482.203 206.146ZM755.301 206.146C757.86 206.147 760.929 206.658 763.232 207.426V241.196C759.906 240.429 754.533 239.917 750.184 239.917C723.577 239.917 714.367 259.105 714.367 282.386V341.996H678.039V209.728H712.577V234.288H713.087C719.739 217.659 737.649 206.146 755.301 206.146ZM814.655 182.668H814.571V257.313L860.366 209.729H903.346L853.458 258.337L908.975 341.996H864.971L828.642 282.897L814.571 296.457V341.996H778.243V167.939C769.62 180.727 755.451 186.249 739.439 186.249C699.529 186.249 680.086 151.967 680.085 115.383C680.085 79.8216 699.784 46.8185 738.671 46.8184C754.277 46.8184 769.628 53.4699 777.815 66.5176H778.327V0H814.655V182.668ZM628.862 277.269C622.722 282.641 609.929 282.898 598.672 284.944C587.416 287.247 577.182 291.084 577.182 304.388C577.182 317.947 587.672 321.272 599.44 321.272C627.838 321.272 628.862 298.759 628.862 290.828V277.269ZM607.116 46.8174C633.467 46.8174 665.19 52.7021 665.19 84.4258V153.246C665.19 165.27 666.47 177.294 669.795 182.667H632.955C631.675 178.574 630.653 174.224 630.397 169.875C618.884 181.899 601.999 186.249 585.881 186.249C560.809 186.249 540.854 173.712 540.854 146.594C540.854 116.661 563.368 109.498 585.881 106.428C608.139 103.102 628.862 103.869 628.862 89.0303C628.862 73.4246 618.116 71.1221 605.325 71.1221C591.51 71.1221 582.555 76.7504 581.276 91.0771H544.947C546.994 57.0509 577.439 46.8174 607.116 46.8174ZM895.584 46.8174C940.611 46.8177 962.358 84.6815 959.799 125.359H864.372C865.395 148.385 876.652 158.874 896.863 158.874C911.445 158.874 923.214 149.92 925.517 141.733H957.497C947.263 172.945 925.517 186.249 895.584 186.249C853.883 186.249 828.044 157.595 828.043 116.661C828.043 77.0064 855.418 46.8174 895.584 46.8174ZM482.204 46.8174C510.346 46.8174 530.556 59.8654 530.556 94.1475V182.667H494.228V107.707C494.228 90.0544 492.693 75.4718 471.97 75.4717C451.503 75.4717 447.666 92.3569 447.666 108.986V182.667H411.336V108.475C411.336 93.1244 412.36 75.4717 389.334 75.4717C382.171 75.4717 364.774 80.0766 364.774 105.916V182.667H328.446V50.3994H362.727V68.3076H363.239C372.705 54.7483 386.521 46.8174 403.662 46.8174C420.291 46.8174 435.129 52.9577 442.292 68.8193C449.968 57.3067 463.783 46.8174 482.204 46.8174ZM628.862 117.94C622.722 123.313 609.929 123.569 598.672 125.615C587.416 127.918 577.182 131.755 577.182 145.059C577.182 158.618 587.672 161.944 599.44 161.944C627.837 161.944 628.862 139.431 628.862 131.5V117.94ZM748.393 74.1924C724.601 74.1926 716.414 94.6602 716.414 116.406C716.414 137.129 725.88 158.875 748.393 158.875C772.442 158.875 779.606 137.896 779.606 116.15C779.606 94.6601 771.93 74.1924 748.393 74.1924ZM894.561 74.1924C871.536 74.1924 864.883 92.1005 864.372 102.334H923.47C920.144 83.914 912.213 74.1925 894.561 74.1924Z" fill="#231F20"/>
<path d="M77.2783 241.587V153.518H100.105V165.442H100.445C106.748 156.414 115.947 151.133 127.36 151.133C138.433 151.133 148.313 155.221 153.082 165.783C158.193 158.117 167.392 151.133 179.656 151.133C198.395 151.133 211.852 159.821 211.852 182.647V241.587H187.663V191.675C187.663 179.922 186.641 170.212 172.843 170.212C159.215 170.212 156.66 181.455 156.66 192.527V241.587H132.471V192.187C132.471 181.966 133.152 170.212 117.821 170.212C113.051 170.212 101.468 173.278 101.468 190.483V241.587H77.2783Z" fill="#231F20"/>
</svg>
