<svg width="960" height="346" viewBox="0 0 960 346" fill="none" xmlns="http://www.w3.org/2000/svg">
<path d="M291.599 50.3969V341.995H0V50.3969H291.599ZM24.7584 317.237H266.84V75.1553H24.7584V317.237Z" fill="white"/>
<path d="M607.114 206.146C633.465 206.146 665.189 212.03 665.189 243.754V312.574C665.189 324.598 666.469 336.623 669.794 341.995H632.954C631.674 337.902 630.651 333.552 630.395 329.203C618.882 341.227 601.997 345.577 585.879 345.577C560.808 345.577 540.852 333.04 540.852 305.922C540.852 275.989 563.366 268.826 585.879 265.756C608.137 262.43 628.86 263.198 628.86 248.359C628.86 232.754 618.115 230.45 605.324 230.45C591.509 230.45 582.554 236.079 581.275 250.406H544.946C546.992 216.38 577.437 206.147 607.114 206.146ZM482.202 206.146C510.344 206.146 530.555 219.194 530.555 253.476V341.995H494.226V267.035C494.226 249.382 492.691 234.8 471.968 234.8C451.502 234.8 447.665 251.685 447.665 268.314V341.995H411.335V267.803C411.335 252.453 412.359 234.8 389.333 234.8C382.17 234.8 364.773 239.405 364.773 265.244V341.995H328.444V209.728H362.726V227.637H363.238C372.704 214.077 386.52 206.146 403.661 206.146C420.29 206.147 435.128 212.287 442.292 228.148C449.967 216.636 463.782 206.147 482.202 206.146ZM755.299 206.146C757.858 206.146 760.928 206.657 763.23 207.425V241.195C759.904 240.428 754.531 239.916 750.182 239.916C723.575 239.916 714.366 259.105 714.366 282.386V341.995H678.037V209.728H712.575V234.288H713.086C719.738 217.659 737.647 206.146 755.299 206.146ZM814.654 182.667H814.569V257.313L860.364 209.729H903.344L853.457 258.337L908.973 341.995H864.969L828.64 282.897L814.569 296.457V341.995H778.241V167.939C769.618 180.727 755.449 186.249 739.438 186.249C699.527 186.249 680.083 151.966 680.083 115.382C680.084 79.8207 699.783 46.8184 738.67 46.8184C754.276 46.8185 769.626 53.47 777.813 66.5176H778.325V0H814.654V182.667ZM628.86 277.269C622.72 282.641 609.928 282.897 598.671 284.943C587.415 287.246 577.181 291.084 577.181 304.388C577.181 317.947 587.671 321.272 599.439 321.272C627.837 321.272 628.86 298.759 628.86 290.828V277.269ZM607.114 46.8174C633.465 46.8174 665.189 52.7021 665.189 84.4258V153.246C665.189 165.27 666.469 177.294 669.794 182.667H632.954C631.674 178.574 630.651 174.224 630.395 169.875C618.882 181.899 601.997 186.249 585.879 186.249C560.808 186.249 540.852 173.712 540.852 146.594C540.852 116.661 563.366 109.498 585.879 106.428C608.137 103.102 628.859 103.869 628.86 89.0312C628.86 73.4254 618.115 71.1221 605.324 71.1221C591.509 71.1221 582.554 76.7506 581.275 91.0771H544.946C546.993 57.0513 577.437 46.8175 607.114 46.8174ZM895.583 46.8174C940.609 46.8176 962.356 84.6816 959.797 125.359H864.37C865.393 148.384 876.65 158.874 896.861 158.874C911.443 158.874 923.212 149.92 925.515 141.733H957.495C947.261 172.945 925.515 186.249 895.583 186.249C853.881 186.249 828.042 157.595 828.042 116.661C828.042 77.0065 855.416 46.8174 895.583 46.8174ZM482.202 46.8174C510.344 46.8174 530.555 59.8654 530.555 94.1475V182.667H494.226V107.707C494.226 90.0543 492.691 75.4717 471.968 75.4717C451.502 75.4718 447.664 92.357 447.664 108.986V182.667H411.335V108.475C411.335 93.1245 412.359 75.4718 389.333 75.4717C382.17 75.4717 364.773 80.0765 364.773 105.916V182.667H328.444V50.3994H362.726V68.3076H363.238C372.704 54.7485 386.519 46.8175 403.66 46.8174C420.289 46.8174 435.128 52.9577 442.292 68.8193C449.967 57.3069 463.782 46.8175 482.202 46.8174ZM628.86 117.94C622.72 123.313 609.928 123.569 598.671 125.615C587.415 127.918 577.181 131.755 577.181 145.059C577.181 158.618 587.671 161.944 599.439 161.944C627.836 161.944 628.86 139.431 628.86 131.5V117.94ZM748.392 74.1924C724.599 74.1924 716.413 94.6593 716.413 116.405C716.413 137.128 725.878 158.874 748.392 158.874C772.441 158.874 779.604 137.895 779.604 116.149C779.604 94.6594 771.929 74.1925 748.392 74.1924ZM894.559 74.1924C871.534 74.1924 864.881 92.1005 864.37 102.334H923.468C920.142 83.9141 912.211 74.1925 894.559 74.1924Z" fill="white"/>
<path d="M77.2783 241.587V153.518H100.105V165.442H100.445C106.748 156.414 115.947 151.133 127.36 151.133C138.433 151.133 148.313 155.221 153.082 165.783C158.193 158.117 167.391 151.133 179.656 151.133C198.394 151.133 211.852 159.82 211.852 182.647V241.587H187.663V191.675C187.663 179.921 186.64 170.212 172.842 170.212C159.215 170.212 156.66 181.454 156.66 192.527V241.587H132.47V192.186C132.47 181.965 133.152 170.212 117.821 170.212C113.051 170.212 101.467 173.278 101.467 190.483V241.587H77.2783Z" fill="white"/>
</svg>
