<svg width="106" height="106" viewBox="0 0 106 106" fill="none" xmlns="http://www.w3.org/2000/svg">
<rect x="4.5" y="4.5" width="97" height="97" fill="white" stroke="#231F20" stroke-width="9"/>
<path d="M28.0916 69.4999V37.4857H36.3892V41.8203H36.5131C38.8042 38.5384 42.1481 36.6188 46.2969 36.6188C50.3219 36.6188 53.9135 38.1049 55.6473 41.9442C57.505 39.1576 60.8489 36.6188 65.3073 36.6188C72.1189 36.6188 77.0108 39.7769 77.0108 48.0745V69.4999H68.2177V51.3565C68.2177 47.0838 67.8462 43.5542 62.8304 43.5542C57.8766 43.5542 56.9477 47.6411 56.9477 51.6661V69.4999H48.1546V51.5422C48.1546 47.8269 48.4023 43.5542 42.8292 43.5542C41.0954 43.5542 36.8846 44.6688 36.8846 50.923V69.4999H28.0916Z" fill="#231F20"/>
</svg>
